<?xml version="1.0" encoding="utf-8"?>
<svg xmlns="http://www.w3.org/2000/svg" style="margin: auto; background: none; display: block; shape-rendering: auto;" width="476" height="250" preserveAspectRatio="xMidYMid">
<style type="text/css">
  text {
    text-anchor: middle; font-size: 52px; opacity: 0;
  }
</style>
<g style="transform-origin: 238px 125px; transform: scale(0.65);">
<g transform="translate(238,125)">
  <g transform="translate(0,0)"><g class="path" style="transform: translate(0px, 0px); transform-origin: -228.88px -6.86586px; animation: 1.51515s linear -0.916667s infinite normal forwards running bounceAlt-744ac09a-ad0b-4c51-8ef8-79e7f8a3e267;"><path d="M32.64 1.12L32.64 1.12Q17.52 1.12 9.32-6.56L9.32-6.56L9.32-6.56Q1.12-14.24 1.12-31.12L1.12-31.12L1.12-31.12Q1.12-63.36 32.48-63.36L32.48-63.36L32.48-63.36Q40.08-63.36 46.60-61.52L46.60-61.52L46.60-61.52Q53.12-59.68 56.32-57.44L56.32-57.44L56.32-37.44L37.12-37.44L37.12-43.20L37.12-43.20Q37.12-46.24 35.76-47.68L35.76-47.68L35.76-47.68Q34.40-49.12 31.68-49.12L31.68-49.12L31.68-49.12Q28.96-49.12 27.60-47.68L27.60-47.68L27.60-47.68Q26.24-46.24 26.24-43.20L26.24-43.20L26.24-19.04L26.24-19.04Q26.24-16 27.60-14.56L27.60-14.56L27.60-14.56Q28.96-13.12 31.68-13.12L31.68-13.12L31.68-13.12Q34.40-13.12 35.76-14.56L35.76-14.56L35.76-14.56Q37.12-16 37.12-19.04L37.12-19.04L37.12-25.52L56.32-25.52L56.32-4.80L56.32-4.80Q53.04-2.56 46.60-0.72L46.60-0.72L46.60-0.72Q40.16 1.12 32.64 1.12L32.64 1.12" fill="#e27200" stroke="none" stroke-width="none" transform="translate(-257.6000061035156,24.25413279215494)" style="fill: rgb(226, 114, 0);"></path></g><g class="path" style="transform: translate(0px, 0px); transform-origin: -174.56px 2.01413px; animation: 1.51515s linear -0.833333s infinite normal forwards running bounceAlt-744ac09a-ad0b-4c51-8ef8-79e7f8a3e267;"><path d="M83.04 1.12L83.04 1.12Q71.68 1.12 65.28-4.84L65.28-4.84L65.28-4.84Q58.88-10.80 58.88-22.24L58.88-22.24L58.88-22.24Q58.88-33.68 65.28-39.64L65.28-39.64L65.28-39.64Q71.68-45.60 83.04-45.60L83.04-45.60L83.04-45.60Q94.56-45.60 100.88-39.56L100.88-39.56L100.88-39.56Q107.20-33.52 107.20-22.24L107.20-22.24L107.20-22.24Q107.20-10.80 100.80-4.84L100.80-4.84L100.80-4.84Q94.40 1.12 83.04 1.12L83.04 1.12zM83.04-13.12L83.04-13.12Q85.36-13.12 86.52-14.36L86.52-14.36L86.52-14.36Q87.68-15.60 87.68-18.24L87.68-18.24L87.68-26.24L87.68-26.24Q87.68-28.88 86.52-30.12L86.52-30.12L86.52-30.12Q85.36-31.36 83.04-31.36L83.04-31.36L83.04-31.36Q80.72-31.36 79.56-30.12L79.56-30.12L79.56-30.12Q78.40-28.88 78.40-26.24L78.40-26.24L78.40-18.24L78.40-18.24Q78.40-15.60 79.56-14.36L79.56-14.36L79.56-14.36Q80.72-13.12 83.04-13.12L83.04-13.12" fill="#e27200" stroke="none" stroke-width="none" transform="translate(-257.6000061035156,24.25413279215494)" style="fill: rgb(226, 114, 0);"></path></g><g class="path" style="transform: translate(0px, 0px); transform-origin: -130.2px -7.42587px; animation: 1.51515s linear -0.75s infinite normal forwards running bounceAlt-744ac09a-ad0b-4c51-8ef8-79e7f8a3e267;"><path d="M109.76 0L109.76-13.12L113.28-13.12L113.28-31.36L109.76-31.36L109.76-44.48L113.44-44.48L113.44-44.48Q113.44-54.24 118.20-58.80L118.20-58.80L118.20-58.80Q122.96-63.36 132.08-63.36L132.08-63.36L132.08-63.36Q136.48-63.36 139.96-62.72L139.96-62.72L139.96-62.72Q143.44-62.08 145.04-61.28L145.04-61.28L145.04-48.72L145.04-48.72Q140.80-49.12 137.20-49.12L137.20-49.12L137.20-49.12Q134.08-49.12 132.88-48.08L132.88-48.08L132.88-48.08Q131.68-47.04 131.68-44.48L131.68-44.48L137.92-44.48L137.92-31.36L131.68-31.36L131.68-13.12L137.92-13.12L137.92 0L109.76 0" fill="#e27200" stroke="none" stroke-width="none" transform="translate(-257.6000061035156,24.25413279215494)" style="fill: rgb(226, 114, 0);"></path></g><g class="path" style="transform: translate(0px, 0px); transform-origin: -99.48px -7.42587px; animation: 1.51515s linear -0.666667s infinite normal forwards running bounceAlt-744ac09a-ad0b-4c51-8ef8-79e7f8a3e267;"><path d="M140.48 0L140.48-13.12L144-13.12L144-31.36L140.48-31.36L140.48-44.48L144.16-44.48L144.16-44.48Q144.16-54.24 148.92-58.80L148.92-58.80L148.92-58.80Q153.68-63.36 162.80-63.36L162.80-63.36L162.80-63.36Q167.20-63.36 170.68-62.72L170.68-62.72L170.68-62.72Q174.16-62.08 175.76-61.28L175.76-61.28L175.76-48.72L175.76-48.72Q171.52-49.12 167.92-49.12L167.92-49.12L167.92-49.12Q164.80-49.12 163.60-48.08L163.60-48.08L163.60-48.08Q162.40-47.04 162.40-44.48L162.40-44.48L168.64-44.48L168.64-31.36L162.40-31.36L162.40-13.12L168.64-13.12L168.64 0L140.48 0" fill="#e27200" stroke="none" stroke-width="none" transform="translate(-257.6000061035156,24.25413279215494)" style="fill: rgb(226, 114, 0);"></path></g><g class="path" style="transform: translate(0px, 0px); transform-origin: -64px 2.01413px; animation: 1.51515s linear -0.583333s infinite normal forwards running bounceAlt-744ac09a-ad0b-4c51-8ef8-79e7f8a3e267;"><path d="M195.04 1.12L195.04 1.12Q183.68 1.12 177.28-4.84L177.28-4.84L177.28-4.84Q170.88-10.80 170.88-22.24L170.88-22.24L170.88-22.24Q170.88-33.68 177.28-39.64L177.28-39.64L177.28-39.64Q183.68-45.60 195.04-45.60L195.04-45.60L195.04-45.60Q206.32-45.60 211.32-39.72L211.32-39.72L211.32-39.72Q216.32-33.84 216.32-25.12L216.32-25.12L216.32-19.36L190.40-19.36L190.40-18.88L190.40-18.88Q190.40-15.92 192.16-14.52L192.16-14.52L192.16-14.52Q193.92-13.12 198-13.12L198-13.12L198-13.12Q202.88-13.12 207.28-13.84L207.28-13.84L207.28-13.84Q211.68-14.56 214.96-15.68L214.96-15.68L214.96-2.88L214.96-2.88Q212.16-1.36 206.76-0.12L206.76-0.12L206.76-0.12Q201.36 1.12 195.04 1.12L195.04 1.12zM190.40-28.16L199.68-28.16L199.68-29.12L199.68-29.12Q199.68-31.84 198.52-33.04L198.52-33.04L198.52-33.04Q197.36-34.24 195.04-34.24L195.04-34.24L195.04-34.24Q192.72-34.24 191.56-33L191.56-33L191.56-33Q190.40-31.76 190.40-29.12L190.40-29.12L190.40-28.16" fill="#e27200" stroke="none" stroke-width="none" transform="translate(-257.6000061035156,24.25413279215494)" style="fill: rgb(226, 114, 0);"></path></g><g class="path" style="transform: translate(0px, 0px); transform-origin: -16.48px 2.01413px; animation: 1.51515s linear -0.5s infinite normal forwards running bounceAlt-744ac09a-ad0b-4c51-8ef8-79e7f8a3e267;"><path d="M242.56 1.12L242.56 1.12Q231.20 1.12 224.80-4.84L224.80-4.84L224.80-4.84Q218.40-10.80 218.40-22.24L218.40-22.24L218.40-22.24Q218.40-33.68 224.80-39.64L224.80-39.64L224.80-39.64Q231.20-45.60 242.56-45.60L242.56-45.60L242.56-45.60Q253.84-45.60 258.84-39.72L258.84-39.72L258.84-39.72Q263.84-33.84 263.84-25.12L263.84-25.12L263.84-19.36L237.92-19.36L237.92-18.88L237.92-18.88Q237.92-15.92 239.68-14.52L239.68-14.52L239.68-14.52Q241.44-13.12 245.52-13.12L245.52-13.12L245.52-13.12Q250.40-13.12 254.80-13.84L254.80-13.84L254.80-13.84Q259.20-14.56 262.48-15.68L262.48-15.68L262.48-2.88L262.48-2.88Q259.68-1.36 254.28-0.12L254.28-0.12L254.28-0.12Q248.88 1.12 242.56 1.12L242.56 1.12zM237.92-28.16L247.20-28.16L247.20-29.12L247.20-29.12Q247.20-31.84 246.04-33.04L246.04-33.04L246.04-33.04Q244.88-34.24 242.56-34.24L242.56-34.24L242.56-34.24Q240.24-34.24 239.08-33L239.08-33L239.08-33Q237.92-31.76 237.92-29.12L237.92-29.12L237.92-28.16" fill="#e27200" stroke="none" stroke-width="none" transform="translate(-257.6000061035156,24.25413279215494)" style="fill: rgb(226, 114, 0);"></path></g><g class="path" style="transform: translate(0px, 0px); transform-origin: 63.44px -6.86587px; animation: 1.51515s linear -0.416667s infinite normal forwards running bounceAlt-744ac09a-ad0b-4c51-8ef8-79e7f8a3e267;"><path d="M335.60-62.24L349.12-13.12L352.32-13.12L352.32 0L320.96 0L320.96-13.12L325.76-13.12L324.48-19.52L313.60-19.52L312.32-13.12L317.12-13.12L317.12 0L289.76 0L289.76-13.12L292.96-13.12L306.48-62.24L335.60-62.24zM318.64-43.92L315.36-28L322.72-28L319.44-43.92L318.64-43.92" fill="#e27200" stroke="none" stroke-width="none" transform="translate(-257.6000061035156,24.25413279215494)" style="fill: rgb(226, 114, 0);"></path></g><g class="path" style="transform: translate(0px, 0px); transform-origin: 123.68px 1.45413px; animation: 1.51515s linear -0.333333s infinite normal forwards running bounceAlt-744ac09a-ad0b-4c51-8ef8-79e7f8a3e267;"><path d="M404.32-13.12L407.84-13.12L407.84 0L382.56 0L382.56-13.12L385.92-13.12L385.92-26.24L385.92-26.24Q385.92-28.88 384.80-30.12L384.80-30.12L384.80-30.12Q383.68-31.36 381.44-31.36L381.44-31.36L381.44-31.36Q376.64-31.36 376.64-26.24L376.64-26.24L376.64-13.12L380-13.12L380 0L354.72 0L354.72-13.12L358.24-13.12L358.24-31.36L354.72-31.36L354.72-44.48L376.64-44.48L376.64-38.24L376.64-38.24Q382.40-45.60 391.04-45.60L391.04-45.60L391.04-45.60Q397.68-45.60 401-41.44L401-41.44L401-41.44Q404.32-37.28 404.32-30L404.32-30L404.32-13.12" fill="#e27200" stroke="none" stroke-width="none" transform="translate(-257.6000061035156,24.25413279215494)" style="fill: rgb(226, 114, 0);"></path></g><g class="path" style="transform: translate(0px, 0px); transform-origin: 177.52px -6.30587px; animation: 1.51515s linear -0.25s infinite normal forwards running bounceAlt-744ac09a-ad0b-4c51-8ef8-79e7f8a3e267;"><path d="M426.16 1.12L426.16 1.12Q418.00 1.12 413.88-4.96L413.88-4.96L413.88-4.96Q409.76-11.04 409.76-22.24L409.76-22.24L409.76-22.24Q409.76-33.44 413.88-39.52L413.88-39.52L413.88-39.52Q418.00-45.60 426.16-45.60L426.16-45.60L426.16-45.60Q430.24-45.60 433.40-43.60L433.40-43.60L433.40-43.60Q436.56-41.60 438.56-39.04L438.56-39.04L438.56-49.12L433.84-49.12L433.84-62.24L456.96-62.24L456.96-13.12L460.48-13.12L460.48 0L438.56 0L438.56-5.44L438.56-5.44Q436.56-2.88 433.40-0.88L433.40-0.88L433.40-0.88Q430.24 1.12 426.16 1.12L426.16 1.12zM433.92-13.12L433.92-13.12Q436.24-13.12 437.40-14.36L437.40-14.36L437.40-14.36Q438.56-15.60 438.56-18.24L438.56-18.24L438.56-26.24L438.56-26.24Q438.56-28.88 437.40-30.12L437.40-30.12L437.40-30.12Q436.24-31.36 433.92-31.36L433.92-31.36L433.92-31.36Q431.60-31.36 430.44-30.12L430.44-30.12L430.44-30.12Q429.28-28.88 429.28-26.24L429.28-26.24L429.28-18.24L429.28-18.24Q429.28-15.60 430.44-14.36L430.44-14.36L430.44-14.36Q431.60-13.12 433.92-13.12L433.92-13.12" fill="#e27200" stroke="none" stroke-width="none" transform="translate(-257.6000061035156,24.25413279215494)" style="fill: rgb(226, 114, 0);"></path></g><g class="path" style="transform: translate(0px, 0px); transform-origin: 213.44px 17.6941px; animation: 1.51515s linear -0.166667s infinite normal forwards running bounceAlt-744ac09a-ad0b-4c51-8ef8-79e7f8a3e267;"><path d="M477.28 0L464.80 0L464.80-13.12L477.28-13.12L477.28 0" fill="#e27200" stroke="none" stroke-width="none" transform="translate(-257.6000061035156,24.25413279215494)" style="fill: rgb(226, 114, 0);"></path></g><g class="path" style="transform: translate(0px, 0px); transform-origin: 232.96px 17.6941px; animation: 1.51515s linear -0.0833333s infinite normal forwards running bounceAlt-744ac09a-ad0b-4c51-8ef8-79e7f8a3e267;"><path d="M496.80 0L484.32 0L484.32-13.12L496.80-13.12L496.80 0" fill="#e27200" stroke="none" stroke-width="none" transform="translate(-257.6000061035156,24.25413279215494)" style="fill: rgb(226, 114, 0);"></path></g><g class="path" style="transform: translate(0px, 0px); transform-origin: 252.48px 17.6941px; animation: 1.51515s linear 0s infinite normal forwards running bounceAlt-744ac09a-ad0b-4c51-8ef8-79e7f8a3e267;"><path d="M516.32 0L503.84 0L503.84-13.12L516.32-13.12L516.32 0" fill="#e27200" stroke="none" stroke-width="none" transform="translate(-257.6000061035156,24.25413279215494)" style="fill: rgb(226, 114, 0);"></path></g></g>
</g>
</g>
<style id="bounceAlt-744ac09a-ad0b-4c51-8ef8-79e7f8a3e267" data-anikit="">@keyframes bounceAlt-744ac09a-ad0b-4c51-8ef8-79e7f8a3e267
{
  0% {
    animation-timing-function: cubic-bezier(0.1348,0.3256,0.2495,0.8687);
    transform: translate(0, 0px);
  }
  51% {
    animation-timing-function: cubic-bezier(0.7426,0.1782,0.8523,0.6514);
    transform: translate(0, -14px);
  }
  100% {
    transform: translate(0, 0px);
  }
}</style></svg>