<?xml version="1.0" encoding="utf-8"?>
<svg xmlns="http://www.w3.org/2000/svg" style="margin: auto; background: none; display: block; shape-rendering: auto;" width="476" height="250" preserveAspectRatio="xMidYMid">
<style type="text/css">
  text {
    text-anchor: middle; font-size: 52px; opacity: 0;
  }
</style>
<g style="transform-origin:238px 125px;transform:scale(1)">
<g transform="translate(238,125)">
  <g transform="translate(0,0)"><g class="path" style="transform: translate(0px, 0px); transform-origin: -90.01px -5.08869px; animation: 1.51515s linear -0.888889s infinite normal forwards running bounceAlt-744ac09a-ad0b-4c51-8ef8-79e7f8a3e267;"><path d="M58.40-40.46L58.40-31.93L55.80-31.93L55.80-8.53L58.40-8.53L58.40 0L38.74 0L38.74-8.53L41.24-8.53L41.24-26.73L32.40 0L24.70 0L15.60-26.47L15.60-8.53L18.10-8.53L18.10 0L1.04 0L1.04-8.53L3.64-8.53L3.64-31.93L1.04-31.93L1.04-40.46L24.86-40.46L30.26-24.23L35.46-40.46L58.40-40.46" fill="#e27200" stroke="none" stroke-width="none" transform="translate(-119.72999572753906,15.141309204101562)" style="fill: rgb(226, 114, 0);"></path></g><g class="path" style="transform: translate(0px, 0px); transform-origin: -44.8px 0.686309px; animation: 1.51515s linear -0.777778s infinite normal forwards running bounceAlt-744ac09a-ad0b-4c51-8ef8-79e7f8a3e267;"><path d="M75.87 0.73L75.87 0.73Q68.48 0.73 64.32-3.15L64.32-3.15L64.32-3.15Q60.16-7.02 60.16-14.46L60.16-14.46L60.16-14.46Q60.16-21.89 64.32-25.77L64.32-25.77L64.32-25.77Q68.48-29.64 75.87-29.64L75.87-29.64L75.87-29.64Q83.20-29.64 86.45-25.82L86.45-25.82L86.45-25.82Q89.70-22.00 89.70-16.33L89.70-16.33L89.70-12.58L72.85-12.58L72.85-12.27L72.85-12.27Q72.85-10.35 74.00-9.44L74.00-9.44L74.00-9.44Q75.14-8.53 77.79-8.53L77.79-8.53L77.79-8.53Q80.96-8.53 83.82-9.00L83.82-9.00L83.82-9.00Q86.68-9.46 88.82-10.19L88.82-10.19L88.82-1.87L88.82-1.87Q87.00-0.88 83.49-0.08L83.49-0.08L83.49-0.08Q79.98 0.73 75.87 0.73L75.87 0.73zM72.85-18.30L78.88-18.30L78.88-18.93L78.88-18.93Q78.88-20.70 78.13-21.48L78.13-21.48L78.13-21.48Q77.38-22.26 75.87-22.26L75.87-22.26L75.87-22.26Q74.36-22.26 73.61-21.45L73.61-21.45L73.61-21.45Q72.85-20.64 72.85-18.93L72.85-18.93L72.85-18.30" fill="#e27200" stroke="none" stroke-width="none" transform="translate(-119.72999572753906,15.141309204101562)" style="fill: rgb(226, 114, 0);"></path></g><g class="path" style="transform: translate(0px, 0px); transform-origin: -13.31px 0.686309px; animation: 1.51515s linear -0.666667s infinite normal forwards running bounceAlt-744ac09a-ad0b-4c51-8ef8-79e7f8a3e267;"><path d="M119.29-8.53L121.58-8.53L121.58 0L107.85 0L107.85-3.54L107.85-3.54Q106.70-1.87 104.65-0.57L104.65-0.57L104.65-0.57Q102.60 0.73 99.63 0.73L99.63 0.73L99.63 0.73Q95.73 0.73 93.50-1.35L93.50-1.35L93.50-1.35Q91.26-3.43 91.26-7.23L91.26-7.23L91.26-7.23Q91.26-17.06 107.95-17.32L107.95-17.32L107.95-17.32Q107.80-19.08 106.60-19.73L106.60-19.73L106.60-19.73Q105.40-20.38 102.54-20.38L102.54-20.38L102.54-20.38Q100.20-20.38 97.53-19.89L97.53-19.89L97.53-19.89Q94.85-19.40 92.61-18.56L92.61-18.56L92.61-28.13L92.61-28.13Q95.37-28.81 98.59-29.22L98.59-29.22L98.59-29.22Q101.82-29.64 104.88-29.64L104.88-29.64L104.88-29.64Q112.63-29.64 115.96-26.83L115.96-26.83L115.96-26.83Q119.29-24.02 119.29-18.15L119.29-18.15L119.29-8.53zM107.85-11.86L107.85-12.17L107.85-12.17Q105.51-12.17 104.23-11.54L104.23-11.54L104.23-11.54Q102.96-10.92 102.96-9.46L102.96-9.46L102.96-9.46Q102.96-8.58 103.51-8.03L103.51-8.03L103.51-8.03Q104.05-7.49 105.04-7.49L105.04-7.49L105.04-7.49Q106.39-7.49 107.12-8.63L107.12-8.63L107.12-8.63Q107.85-9.78 107.85-11.86L107.85-11.86" fill="#e27200" stroke="none" stroke-width="none" transform="translate(-119.72999572753906,15.141309204101562)" style="fill: rgb(226, 114, 0);"></path></g><g class="path" style="transform: translate(0px, 0px); transform-origin: 11.78px -5.06369px; animation: 1.51515s linear -0.555556s infinite normal forwards running bounceAlt-744ac09a-ad0b-4c51-8ef8-79e7f8a3e267;"><path d="M139.78 0.05L123.24 0.05L123.24-8.53L125.53-8.53L125.53-31.93L123.24-31.93L123.24-40.46L137.49-40.46L137.49-8.53L139.78-8.53L139.78 0.05" fill="#e27200" stroke="none" stroke-width="none" transform="translate(-119.72999572753906,15.141309204101562)" style="fill: rgb(226, 114, 0);"></path></g><g class="path" style="transform: translate(0px, 0px); transform-origin: 34.37px 0.686309px; animation: 1.51515s linear -0.444444s infinite normal forwards running bounceAlt-744ac09a-ad0b-4c51-8ef8-79e7f8a3e267;"><path d="M154.08 0.73L154.08 0.73Q147.52 0.73 141.44-1.35L141.44-1.35L141.44-9.05L149.86-9.05L149.86-8.53L149.86-8.53Q149.86-6.03 153.04-6.03L153.04-6.03L153.04-6.03Q155.84-6.03 155.84-7.96L155.84-7.96L155.84-7.96Q155.84-9.00 155.04-9.52L155.04-9.52L155.04-9.52Q154.23-10.04 152.20-10.40L152.20-10.40L149.60-10.87L149.60-10.87Q141.44-12.32 141.44-20.12L141.44-20.12L141.44-20.12Q141.44-24.65 144.87-27.14L144.87-27.14L144.87-27.14Q148.30-29.64 154.13-29.64L154.13-29.64L154.13-29.64Q160.63-29.64 165.10-27.46L165.10-27.46L165.10-20.23L157.20-20.23L157.20-20.75L157.20-20.75Q157.20-21.79 156.49-22.33L156.49-22.33L156.49-22.33Q155.79-22.88 154.44-22.88L154.44-22.88L154.44-22.88Q151.84-22.88 151.84-21.22L151.84-21.22L151.84-21.22Q151.84-20.33 152.57-19.86L152.57-19.86L152.57-19.86Q153.30-19.40 155.22-18.98L155.22-18.98L158.18-18.41L158.18-18.41Q162.81-17.52 164.79-15.13L164.79-15.13L164.79-15.13Q166.76-12.74 166.76-9.00L166.76-9.00L166.76-9.00Q166.76-4.26 163.46-1.77L163.46-1.77L163.46-1.77Q160.16 0.73 154.08 0.73L154.08 0.73" fill="#e27200" stroke="none" stroke-width="none" transform="translate(-119.72999572753906,15.141309204101562)" style="fill: rgb(226, 114, 0);"></path></g><g class="path" style="transform: translate(0px, 0px); transform-origin: 60.525px -1.62869px; animation: 1.51515s linear -0.333333s infinite normal forwards running bounceAlt-744ac09a-ad0b-4c51-8ef8-79e7f8a3e267;"><path d="M191.15-3.59L190.06-3.59L169.36-11.96L169.36-21.53L190.06-29.95L191.15-29.95L191.15-21.84L177.06-17.06L177.06-16.48L191.15-11.65L191.15-3.59" fill="#e27200" stroke="none" stroke-width="none" transform="translate(-119.72999572753906,15.141309204101562)" style="fill: rgb(226, 114, 0);"></path></g><g class="path" style="transform: translate(0px, 0px); transform-origin: 89.96px -5.08369px; animation: 1.51515s linear -0.222222s infinite normal forwards running bounceAlt-744ac09a-ad0b-4c51-8ef8-79e7f8a3e267;"><path d="M218.71-20.64L218.71-20.64Q220.32-20.23 221.81-18.95L221.81-18.95L221.81-18.95Q223.29-17.68 224.25-15.76L224.25-15.76L224.25-15.76Q225.21-13.83 225.21-11.49L225.21-11.49L225.21-11.49Q225.21-5.77 221.13-2.52L221.13-2.52L221.13-2.52Q217.05 0.73 209.04 0.73L209.04 0.73L209.04 0.73Q205.24 0.73 201.45-0.13L201.45-0.13L201.45-0.13Q197.65-0.99 194.69-2.24L194.69-2.24L194.69-13.31L194.69-13.31Q197.91-11.91 201.37-11.02L201.37-11.02L201.37-11.02Q204.83-10.14 207.95-10.14L207.95-10.14L207.95-10.14Q210.13-10.14 211.15-10.82L211.15-10.82L211.15-10.82Q212.16-11.49 212.16-13.05L212.16-13.05L212.16-13.05Q212.16-16.07 208.52-16.07L208.52-16.07L204.78-16.07L204.78-24.60L207.69-24.60L207.69-24.60Q211.12-24.60 211.12-27.51L211.12-27.51L211.12-27.51Q211.12-30.32 207.69-30.32L207.69-30.32L207.69-30.32Q205.19-30.32 202.49-29.15L202.49-29.15L202.49-29.15Q199.78-27.98 197.24-26.10L197.24-26.10L194.17-37.18L194.17-37.18Q197.34-38.84 201.40-40.01L201.40-40.01L201.40-40.01Q205.45-41.18 209.56-41.18L209.56-41.18L209.56-41.18Q216.74-41.18 220.58-38.17L220.58-38.17L220.58-38.17Q224.43-35.15 224.43-29.64L224.43-29.64L224.43-29.64Q224.43-26.21 222.82-24.00L222.82-24.00L222.82-24.00Q221.21-21.79 218.71-20.64L218.71-20.64" fill="#e27200" stroke="none" stroke-width="none" transform="translate(-119.72999572753906,15.141309204101562)" style="fill: rgb(226, 114, 0);"></path></g><g class="path" style="transform: translate(0px, 0px); transform-origin: 114.92px -10.7837px; animation: 1.51515s linear -0.111111s infinite normal forwards running bounceAlt-744ac09a-ad0b-4c51-8ef8-79e7f8a3e267;"><path d="M239.98-11.39L229.27-11.39L226.88-37.86L226.88-40.46L242.42-40.46L242.42-37.86L239.98-11.39" fill="#e27200" stroke="none" stroke-width="none" transform="translate(-119.72999572753906,15.141309204101562)" style="fill: rgb(226, 114, 0);"></path></g><g class="path" style="transform: translate(0px, 0px); transform-origin: 114.895px 10.8763px; animation: 1.51515s linear 0s infinite normal forwards running bounceAlt-744ac09a-ad0b-4c51-8ef8-79e7f8a3e267;"><path d="M240.50 0L228.75 0L228.75-8.53L240.50-8.53L240.50 0" fill="#e27200" stroke="none" stroke-width="none" transform="translate(-119.72999572753906,15.141309204101562)" style="fill: rgb(226, 114, 0);"></path></g></g>
</g>
</g>
<style id="bounceAlt-744ac09a-ad0b-4c51-8ef8-79e7f8a3e267" data-anikit="">@keyframes bounceAlt-744ac09a-ad0b-4c51-8ef8-79e7f8a3e267
{
  0% {
    animation-timing-function: cubic-bezier(0.1348,0.3256,0.2495,0.8687);
    transform: translate(0, 0px);
  }
  51% {
    animation-timing-function: cubic-bezier(0.7426,0.1782,0.8523,0.6514);
    transform: translate(0, -14px);
  }
  100% {
    transform: translate(0, 0px);
  }
}</style></svg>