<?xml version="1.0" encoding="utf-8"?>
<svg xml:space="preserve" viewBox="0 0 100 100" y="0" x="0" xmlns="http://www.w3.org/2000/svg" id="Layer_1" version="1.1" style="height: 100%; width: 100%; background: none; shape-rendering: auto;" width="200px" height="200px"><g class="ldl-scale" style="transform-origin: 50% 50%; transform: rotate(0deg) scale(0.8, 0.8);"><g class="ldl-ani"><g class="ldl-layer"><g class="ldl-ani" style="transform-origin: 50px 50px; transform: matrix(0.01, 0, 0, 0.01, 0, 0); animation: 1.11111s linear 0.277778s 1 normal forwards running bounce-in-a9965878-80ec-42d1-b7ef-1b6354301903;"><path fill="#cccccb" d="M77.017 41.608H53.833V22.453c0-1.164-1.384-1.773-2.242-.986L21.545 49.015a1.334 1.334 0 0 0 0 1.972l30.046 27.548c.858.787 2.242.178 2.242-.986V58.395h23.184a1.872 1.872 0 0 0 1.872-1.872V43.48a1.872 1.872 0 0 0-1.872-1.872z" style="fill: rgb(204, 204, 203);"></path></g></g><g class="ldl-layer"><g class="ldl-ani" style="transform-origin: 50px 50px; transform: matrix(0.01, 0, 0, 0.01, 0, 0); animation: 1.11111s linear 0s 1 normal forwards running bounce-in-a9965878-80ec-42d1-b7ef-1b6354301903;"><path fill="#323232" d="M82.407 10.001H17.593A7.593 7.593 0 0 0 10 17.594v64.814c0 4.194 3.4 7.593 7.593 7.593h64.814c4.193 0 7.593-3.4 7.593-7.593V17.595c0-4.194-3.4-7.594-7.593-7.594zm-3.518 46.522a1.872 1.872 0 0 1-1.872 1.872H53.833V77.55c0 1.164-1.384 1.773-2.242.986L21.545 50.988a1.334 1.334 0 0 1 0-1.972l30.046-27.548c.858-.787 2.242-.178 2.242.986v19.155h23.184c1.034 0 1.872.838 1.872 1.872v13.042z" style="fill: rgb(50, 50, 50);"></path></g></g><metadata xmlns:d="https://loading.io/stock/">
<d:name>left</d:name>
<d:tags>west,back,undo,previous,direction,way,turn,square,left,arrow</d:tags>
<d:license>by</d:license>
<d:slug>vkwajr</d:slug>
</metadata></g></g><style id="bounce-in-a9965878-80ec-42d1-b7ef-1b6354301903" data-anikit="">@keyframes bounce-in-a9965878-80ec-42d1-b7ef-1b6354301903
{
  0% {
    animation-timing-function: cubic-bezier(0.0383,0.3388,0.0421,0.6652);
    transform: matrix(0.01,0,0,0.01,0,0);
    opacity: 1;
  }
  4.7% {
    animation-timing-function: cubic-bezier(0.3296,0.3336,0.5772,0.6672);
    transform: matrix(0.556,0,0,0.556,0,0);
    opacity: 1;
  }
  8.4% {
    animation-timing-function: cubic-bezier(0.0781,0.1617,0.0874,0.9301);
    transform: matrix(0.979,0,0,0.979,0,0);
    opacity: 1;
  }
  12.4% {
    animation-timing-function: cubic-bezier(0.8341,0.1496,0.8634,0.7673);
    transform: matrix(1.153,0,0,1.153,0,0);
    opacity: 1;
  }
  16.3% {
    animation-timing-function: cubic-bezier(0.3264,0.3332,0.5758,0.6695);
    transform: matrix(1.008,0,0,1.008,0,0);
    opacity: 1;
  }
  21.2% {
    animation-timing-function: cubic-bezier(0.0921,0.1883,0.3277,1);
    transform: matrix(0.704,0,0,0.704,0,0);
    opacity: 1;
  }
  24.5% {
    animation-timing-function: cubic-bezier(0.6905,0.0944,0.8759,0.7624);
    transform: matrix(0.626,0,0,0.626,0,0);
    opacity: 1;
  }
  27.7% {
    animation-timing-function: cubic-bezier(0.3688,0.332,0.624,0.6684);
    transform: matrix(0.704,0,0,0.704,0,0);
    opacity: 1;
  }
  32.6% {
    animation-timing-function: cubic-bezier(0.1368,0.2364,0.2451,0.9049);
    transform: matrix(0.958,0,0,0.958,0,0);
    opacity: 1;
  }
  37.4% {
    animation-timing-function: cubic-bezier(0.5936,0.0846,0.3495,1);
    transform: matrix(1.085,0,0,1.085,0,0);
    opacity: 1;
  }
  49.5% {
    animation-timing-function: cubic-bezier(0.5522,0.0981,0.3807,1);
    transform: matrix(0.802,0,0,0.802,0,0);
    opacity: 1;
  }
  62.4% {
    animation-timing-function: cubic-bezier(0.4497,0.1349,0.4911,1);
    transform: matrix(1.044,0,0,1.044,0,0);
    opacity: 1;
  }
  74.1% {
    animation-timing-function: cubic-bezier(0.429,0,0.5239,1);
    transform: matrix(0.914,0,0,0.914,0,0);
    opacity: 1;
  }
  87% {
    animation-timing-function: cubic-bezier(0.3501,0,0.6422,1);
    transform: matrix(1.013,0,0,1.013,0,0);
    opacity: 1;
  }
  95.8% {
    animation-timing-function: cubic-bezier(0.3653,0,0.6776,1);
    transform: matrix(0.992,0,0,0.992,0,0);
    opacity: 1;
  }
  100% {
    transform: matrix(1,0,0,1,0,0);
    opacity: 1;
  }
}</style><!-- [ldio] generated by https://loading.io/ --></svg>