<?xml version="1.0" encoding="utf-8"?>
<svg xml:space="preserve" viewBox="0 0 128 128" y="0px" x="0px" xmlns:xlink="http://www.w3.org/1999/xlink" xmlns="http://www.w3.org/2000/svg" id="圖層_1" version="1.1" style="height: 100%; width: 100%; background: none; shape-rendering: auto;" width="200px" height="200px"><g class="ldl-scale" style="transform-origin: 50% 50%; transform: rotate(0deg) scale(0.8, 0.8);"><g class="ldl-ani"><g class="ldl-layer"><g class="ldl-ani" style="transform: scale(0.91); transform-origin: 64px 64px; animation: 1.11111s linear -0.611111s infinite normal forwards running breath-c64c42af-b1d2-42fb-ad4f-a5af2c052d4b;"><circle r="51.2" cy="64" cx="64" fill="#A0C8D7" style="fill: rgb(47, 172, 228);"></circle></g></g><g class="ldl-layer"><g class="ldl-ani" style="transform: scale(0.91); transform-origin: 64px 64px; animation: 1.11111s linear -0.666667s infinite normal forwards running breath-c64c42af-b1d2-42fb-ad4f-a5af2c052d4b;"><path d="z" fill="none"></path></g></g><g class="ldl-layer"><g class="ldl-ani" style="transform: scale(0.91); transform-origin: 64px 64px; animation: 1.11111s linear -0.722222s infinite normal forwards running breath-c64c42af-b1d2-42fb-ad4f-a5af2c052d4b;"><path d="z" fill="none"></path></g></g><g class="ldl-layer"><g class="ldl-ani"><g><g class="ldl-layer"><g class="ldl-ani" style="transform: scale(0.91); transform-origin: 64px 64px; animation: 1.11111s linear -0.777778s infinite normal forwards running breath-c64c42af-b1d2-42fb-ad4f-a5af2c052d4b;"><path d="M107.11,119.58H20.89l6.12-33.94c1.24-6.87,6.66-12.22,13.55-13.36L64,68.4l23.44,3.88 c6.89,1.14,12.31,6.49,13.55,13.36C100.98,85.64,107.11,119.58,107.11,119.58z" fill="#E0E0E0" style="fill: rgb(40, 41, 47);"></path></g></g><g class="ldl-layer"><g class="ldl-ani"><g><g class="ldl-layer"><g class="ldl-ani" style="transform: scale(0.91); transform-origin: 64px 64px; animation: 1.11111s linear -0.833333s infinite normal forwards running breath-c64c42af-b1d2-42fb-ad4f-a5af2c052d4b;"><path d="M70.85,83.33L64,89.12l-6.85-5.79V72.06h13.71V83.33z" fill="#C33736" style="fill: rgb(47, 172, 228);"></path></g></g><g class="ldl-layer"><g class="ldl-ani" style="transform: scale(0.91); transform-origin: 64px 64px; animation: 1.11111s linear -0.888889s infinite normal forwards running breath-c64c42af-b1d2-42fb-ad4f-a5af2c052d4b;"><path d="M71.34,119.58H56.59l4.46-33.82h5.82L71.34,119.58z" fill="#C33736" style="fill: rgb(47, 172, 228);"></path></g></g></g></g></g><g class="ldl-layer"><g class="ldl-ani" style="transform: scale(0.91); transform-origin: 64px 64px; animation: 1.11111s linear -0.944444s infinite normal forwards running breath-c64c42af-b1d2-42fb-ad4f-a5af2c052d4b;"><path d="M55.47,70.23l-5.93-4.77l-5.95,6.33l13.1,15.2l5.48-14.01L55.47,70.23z" fill="#FFFFFF" style="fill: rgb(10, 10, 10);"></path></g></g><g class="ldl-layer"><g class="ldl-ani" style="transform: scale(0.91); transform-origin: 64px 64px; animation: 1.11111s linear -1s infinite normal forwards running breath-c64c42af-b1d2-42fb-ad4f-a5af2c052d4b;"><path d="M72.53,70.23l5.93-4.77l5.95,6.33l-13.1,15.2l-5.48-14.01L72.53,70.23z" fill="#FFFFFF" style="fill: rgb(10, 10, 10);"></path></g></g><g class="ldl-layer"><g class="ldl-ani"><g><g class="ldl-layer"><g class="ldl-ani" style="transform: scale(0.91); transform-origin: 64px 64px; animation: 1.11111s linear -1.05556s infinite normal forwards running breath-c64c42af-b1d2-42fb-ad4f-a5af2c052d4b;"><path d="M84.41,46.01c0,13.8-9.14,28.64-20.41,28.64S43.59,59.81,43.59,46.01S52.73,24.69,64,24.69 S84.41,32.21,84.41,46.01z" fill="#F4E6C8" style="fill: rgb(255, 255, 255);"></path></g></g><g class="ldl-layer"><g class="ldl-ani" style="transform: scale(0.91); transform-origin: 64px 64px; animation: 1.11111s linear -1.11111s infinite normal forwards running breath-c64c42af-b1d2-42fb-ad4f-a5af2c052d4b;"><path d="M64,24.69c-11.27,0-20.41,7.53-20.41,21.32c0,0.75,0.03,1.5,0.08,2.24c9.1-0.41,17.22-3.8,22.93-9.01 c2.82,5.45,7.66,9.05,13.16,9.05c1.58,0,3.14-0.3,4.61-0.88c0.02-0.47,0.03-0.94,0.03-1.41C84.41,32.21,75.27,24.69,64,24.69z" fill="#323232" style="fill: rgb(10, 10, 10);"></path></g></g></g></g></g></g></g></g><metadata xmlns:d="https://loading.io/stock/">
<d:name>user</d:name>
<d:tags>user,avatar,man,person,member,crew,staff,owner,account</d:tags>
<d:license>by</d:license>
<d:slug>q37o4k</d:slug>
</metadata></g></g><style id="breath-c64c42af-b1d2-42fb-ad4f-a5af2c052d4b" data-anikit="">@keyframes breath-c64c42af-b1d2-42fb-ad4f-a5af2c052d4b
{
  0% {
    animation-timing-function: cubic-bezier(0.9647,0.2413,-0.0705,0.7911);
    transform: scale(0.9099999999999999);
  }
  51% {
    animation-timing-function: cubic-bezier(0.9226,0.2631,-0.0308,0.7628);
    transform: scale(1.02994);
  }
  100% {
    transform: scale(0.9099999999999999);
  }
}</style><!-- [ldio] generated by https://loading.io/ --></svg>